<?xml version="1.0" encoding="utf-8"?>
<!-- Generator: Adobe Illustrator 19.2.1, SVG Export Plug-In . SVG Version: 6.00 Build 0)  -->
<svg version="1.1" id="layer" xmlns="http://www.w3.org/2000/svg" xmlns:xlink="http://www.w3.org/1999/xlink" x="0px" y="0px"
	 viewBox="0 0 652 652" style="enable-background:new 0 0 652 652;" xml:space="preserve">
<path d="M141.1,395v-111l-27.6,111H82.2L54.9,283.6V395H20.5V245.6h56.4l22.7,94.4l23-94.4h55.9V395H141.1L141.1,395z M431.1,395
	h37.3V245.6h-55.9l-23,94.4l-22.7-94.4h-56.4V395H345V283.6L372.3,395h31.3l27.6-111V395z M226.5,341.1v5c0,18.9,7.5,26.7,17.8,26.7
	c10.6,0,18.1-7.8,18.1-26.7v-5c0-19.3-7.5-26.7-18.1-26.7C234.1,314.4,226.5,321.8,226.5,341.1z M191.2,342.4
	c0-33.7,25.1-52.1,52.6-52.1c28,0,54,18.5,54,52.2v2.2c0,34.4-26,52.5-54,52.5c-27.6,0-52.7-18.1-52.7-52.5L191.2,342.4L191.2,342.4
	z M575.7,369.1h-52.6l-8.2,25.8h-35.2l48.4-149.3h46.7L620.5,395h-37L575.7,369.1L575.7,369.1z M550.3,281.8l-17.8,58.6h34.9
	L550.3,281.8L550.3,281.8z"/>
</svg>
